<?xml version="1.0" encoding="utf-8"?>
<!-- Generator: Adobe Illustrator 19.2.0, SVG Export Plug-In . SVG Version: 6.00 Build 0)  -->
<svg version="1.1" id="Layer_1" xmlns="http://www.w3.org/2000/svg" xmlns:xlink="http://www.w3.org/1999/xlink" x="0px" y="0px"
	 viewBox="0 0 351.1 193.1" style="enable-background:new 0 0 351.1 193.1;" xml:space="preserve">
<style type="text/css">
	.st0{fill:#FFFFFF;}
	.st1{fill:#009BD7;}
	.st2{fill:#A5ABB4;}
	.st3{fill:#CED1D3;}
	.st4{fill:#CED1D4;}
	.st5{fill:#1795D3;}
	.st6{enable-background:new    ;}
</style>
<title>logo</title>
<path class="st0" d="M351.1,166.3c-0.4-2.3-1.3-4.6-2.6-6.5c-1.4-2.1-3.1-3.9-5-5.6l-0.1-0.1c-6.7-6-18.2-13.6-34.2-23.9
	c-9.9-6.4-20.2-13-25.3-17.2c-2.7-2.2-5.2-4.1-7.7-6c-10.2-7.9-17.6-13.6-26.1-27.4c-4.9-8-7.2-14.4-9.8-21.3
	c-2.8-7.6-5.7-15.6-11.9-24.5c-2.9-4.2-5.5-8.6-7.9-13.1c-5.3-9.7-10.8-19.7-23-20.5C196.6,0,195.7,0,194.9,0
	c-12,0-17.4,5.9-19.1,8.3l-40.1,56c-8.4-12.2-21.6-23.4-41.4-24.8c-1.6-0.1-3.2-0.2-4.8-0.2c-8.1-0.1-16,1.5-23.4,4.7l-0.7,0.3h-0.1
	c-9.2,3.3-21.6,9.2-27.9,18.5c-6,8.8-0.9,20.3,0.2,22.6l0.2,0.3c-4,4.3-7.4,9.2-10.1,14.5v0.1l-0.2,0.5c-6,11.1-7.8,21.7-5.3,31.6
	c2.3,9.2,12.1,13.7,15,14.9l3.7,1.5l-0.6,0.8c-5.9,7.8-15.4,9.6-22.6,9.8H0v4.1l0,0v16.8c0,0.4,0,0.7,0,1.1
	c0,6.6,5.3,11.9,11.9,11.9l0,0h327.2c6.6,0,11.9-5.3,11.9-11.9L351.1,166.3L351.1,166.3z M142.7,119.8l-0.1,0.2h-0.4L142.7,119.8z
	 M136.5,109.4c0,0.1-0.1,0.3-0.1,0.4l-0.1,0.2L136.5,109.4z M121,100.1L121,100.1c0,0-0.1-0.2-0.2-0.4
	C120.8,99.8,120.9,100,121,100.1L121,100.1z M93.4,132.2c0,0.1,0.1,0.2,0.1,0.4c-0.2-0.2-0.3-0.4-0.4-0.6
	C93.2,132.1,93.3,132.1,93.4,132.2z M84,104.3l0.2,1.2H84l-0.2-1L84,104.3z"/>
<path class="st1" d="M182.9,14.7l-74.5,104c0,0-7.3-16-17.3-18s-29.9,37.1-43.9,55.4C33.8,173.7,9,169.4,9,169.4
	c-0.1,6.1,25.2,0,38.1,0c5.5,0,31.9-63.9,42.7-60.7c9.5,2.9,4.8,13.3,9.3,16.7s1.3,10.7,10.7,6.7s68-102,70.7-96s-1.3,27.5,4,45.3
	s13.3,30,29.3,30.7c31.4,1.3,23.2,12.6,34.5,19.2c11.3,6.6,38.2,20.8,57.5,27.4s39.3,16.3,33.3,7.1s-48.7-33.2-62.7-44.5
	s-24.4-17.1-36-36c-11.1-18.2-10.7-30-21.3-45.3s-13.3-28.7-23.3-29.4S182.9,14.7,182.9,14.7"/>
<path class="st2" d="M66.6,65c0,0,15.4,3.9,27,13.8c12.7,10.8,32.4,36.6,32.4,36.6l8.8-3.2c0,0,7.8-17.2-10.2-39.4
	c-7.6-9.4-18-17.2-31.7-17.8C83.8,54.6,76.8,53.6,66.6,65"/>
<path d="M67.8,54.2c-2.3,0.9-17.2,6.1-23.2,14.8c-3,4.4,0.9,12.6,0.9,12.6l10.2-3.7c0,0,12.2-16.8,20.3-20.2
	c12-5.1,37-5.2,54.6,25.6c5.8,10.1,5.5,25.5,4.6,27.2c1.7-4.7,2.2-9.8,1.6-14.8c-1.3-9.3-12.1-43.4-44.3-45.7
	C84.1,49.3,75.6,50.7,67.8,54.2"/>
<path class="st3" d="M43,113.7c0,0,13-7.2,27.6-7.9C86.4,105,117,110,117,110l3.9-7.9c0,0-6.2-16.7-33.1-20.3
	c-11.4-1.5-23.6-0.2-33.4,8.2C47.8,95.6,42.3,99.5,43,113.7"/>
<path class="st1" d="M35.6,105.3c-1,2.1-7.9,13-4.8,25.2c1.2,4.9,9,8,9,8l4.5-9.1c0,0-2.9-19.2,0.3-26.8
	c4.8-11.2,21.7-27.2,54.1-17.5c10.6,3.2,20.7,13.9,21.3,15.6c-2-4.3-5-8.1-8.8-11.1c-7.1-5.5-37.1-21.8-60.5-2.7
	C40.4,95.2,36.6,103.3,35.6,105.3"/>
<polyline class="st4" points="44,111.8 83.8,130.5 83.9,130.3 44.1,111.6 "/>
<polyline class="st4" points="82,100.4 86.7,128 87,128 82.2,100.4 "/>
<path class="st5" d="M92,132.5c1.6,3.2,11.4,6.4,8.3,7.9s-14.9-0.7-16.5-3.9s-0.3-7,2.9-8.6C89.9,126.4,90.4,129.3,92,132.5"/>
<path class="st1" d="M84.2,105.5H84l-0.2-1l0.2-0.2L84.2,105.5z"/>
<path class="st2" d="M121,100.2c0-0.1-0.1-0.3-0.2-0.5C120.9,99.8,120.9,99.9,121,100.2L121,100.2z"/>
<path class="st2" d="M136.5,109.4c0,0.1-0.1,0.3-0.1,0.4l-0.1,0.2L136.5,109.4z"/>
<path d="M136.5,109.4c0,0.1-0.1,0.3-0.1,0.4l-0.1,0.2L136.5,109.4z"/>
<path class="st3" d="M84.2,105.5H84l-0.2-1l0.2-0.2L84.2,105.5z"/>
<path class="st3" d="M121,100.2c0-0.1-0.1-0.3-0.2-0.5C120.9,99.8,120.9,99.9,121,100.2L121,100.2z"/>
<path class="st1" d="M121,100.2c0-0.1-0.1-0.3-0.2-0.5C120.9,99.8,120.9,99.9,121,100.2L121,100.2z"/>
<path class="st4" d="M84.2,105.5H84l-0.2-1l0.2-0.2L84.2,105.5z"/>
<path class="st0" d="M320.4,163.1l-2.8-1C318.6,162.2,319.5,162.6,320.4,163.1z"/>
<path class="st0" d="M331.3,177.4v0.2l-0.2-0.1L331.3,177.4z"/>
<path class="st0" d="M331.3,177.4v0.2l-0.2-0.1L331.3,177.4z"/>
<path class="st0" d="M121,100.2c0-0.1-0.1-0.3-0.2-0.5C120.9,99.8,120.9,99.9,121,100.2L121,100.2z"/>
<path class="st0" d="M136.5,109.4c0,0.1-0.1,0.3-0.1,0.4l-0.1,0.2L136.5,109.4z"/>
<polygon class="st0" points="142.7,119.8 142.6,120 142.2,120 "/>
<path class="st0" d="M93.5,132.6c-0.2-0.2-0.3-0.4-0.4-0.6c0.1,0.1,0.2,0.2,0.3,0.3S93.4,132.5,93.5,132.6z"/>
<path class="st0" d="M93.4,132.2c-0.1-0.1-0.2-0.2-0.3-0.3c0.1,0.2,0.3,0.4,0.4,0.6C93.4,132.5,93.4,132.4,93.4,132.2z M142.2,120
	h0.4l0.1-0.2L142.2,120z"/>
<path class="st0" d="M0,172.1L0,172.1v-8.8V172.1z"/>
<path class="st0" d="M351.1,164.1v2.2c-0.4-2.3-1.3-4.6-2.6-6.5c-1.4-2.1-3.1-3.9-5-5.6C351,160,351.1,164.1,351.1,164.1z"/>
<rect y="159.3" class="st0" width="1.8" height="22.3"/>
<g class="st6">
	<path d="M76.9,152.1c-0.2,0.4-0.4,0.7-0.7,0.9c-0.3,0.2-0.6,0.2-0.9,0.2c-0.4,0-0.8-0.1-1.2-0.4c-0.5-0.3-1-0.6-1.6-0.9
		c-0.6-0.3-1.4-0.7-2.2-0.9c-0.8-0.3-1.8-0.4-3-0.4c-1,0-1.9,0.1-2.7,0.4c-0.8,0.2-1.4,0.6-1.9,1c-0.5,0.4-0.9,1-1.2,1.6
		c-0.3,0.6-0.4,1.3-0.4,2c0,0.9,0.3,1.7,0.8,2.3s1.2,1.2,2.1,1.6c0.9,0.4,1.8,0.8,2.9,1.2c1.1,0.3,2.2,0.7,3.4,1.1
		c1.1,0.4,2.3,0.9,3.4,1.4c1.1,0.5,2.1,1.2,2.9,2c0.9,0.8,1.6,1.8,2.1,2.9s0.8,2.6,0.8,4.2c0,1.8-0.3,3.5-0.9,5s-1.5,2.9-2.7,4.1
		s-2.6,2.1-4.3,2.8s-3.7,1-5.9,1c-1.3,0-2.5-0.1-3.7-0.4c-1.2-0.2-2.4-0.6-3.5-1.1c-1.1-0.5-2.2-1-3.2-1.6c-1-0.6-1.9-1.4-2.6-2.1
		l2.1-3.5c0.2-0.3,0.4-0.5,0.7-0.6c0.3-0.2,0.6-0.3,0.9-0.3c0.5,0,1,0.2,1.5,0.6s1.2,0.8,1.9,1.3s1.6,0.9,2.6,1.3
		c1,0.4,2.2,0.6,3.5,0.6c2.1,0,3.7-0.5,4.9-1.5s1.7-2.4,1.7-4.3c0-1-0.3-1.9-0.8-2.6s-1.2-1.2-2.1-1.7c-0.9-0.4-1.8-0.8-2.9-1.1
		c-1.1-0.3-2.2-0.7-3.4-1c-1.1-0.4-2.3-0.8-3.4-1.3c-1.1-0.5-2.1-1.2-2.9-2s-1.6-1.9-2.1-3.1s-0.8-2.8-0.8-4.6
		c0-1.4,0.3-2.9,0.9-4.2s1.4-2.6,2.5-3.7c1.1-1.1,2.5-1.9,4.1-2.6s3.5-1,5.5-1c2.3,0,4.5,0.4,6.5,1.1c2,0.7,3.7,1.8,5.1,3.1
		L76.9,152.1z"/>
	<path d="M92.7,161.5h1.7c0.7,0,1.3-0.1,1.7-0.3c0.5-0.2,0.9-0.5,1.2-0.9l11-13.9c0.5-0.6,0.9-1,1.4-1.2c0.5-0.2,1.1-0.3,1.9-0.3
		h6.4l-13.4,16.5c-0.4,0.5-0.8,0.9-1.2,1.3c-0.4,0.3-0.8,0.6-1.2,0.9c0.6,0.2,1.2,0.5,1.6,0.9s1,0.9,1.4,1.5l13.8,18.6h-6.5
		c-0.9,0-1.5-0.1-2-0.4c-0.4-0.2-0.8-0.6-1.1-1.1l-11.2-14.7c-0.4-0.5-0.8-0.8-1.2-1c-0.5-0.2-1.1-0.3-2-0.3h-2.3v17.5h-7.4v-39.8
		h7.4V161.5z"/>
	<path d="M141.1,169.2v15.5h-7.4v-15.5l-14.5-24.3h6.5c0.6,0,1.1,0.2,1.5,0.5c0.4,0.3,0.7,0.7,0.9,1.2l7.3,13.3
		c0.4,0.8,0.8,1.5,1.1,2.2c0.3,0.7,0.6,1.4,0.9,2.1c0.2-0.7,0.5-1.4,0.8-2.1c0.3-0.7,0.7-1.4,1.1-2.2l7.2-13.3
		c0.2-0.4,0.5-0.8,0.9-1.1c0.4-0.3,0.9-0.5,1.5-0.5h6.5L141.1,169.2z"/>
	<path d="M153.8,165.2H168v5.7h-14.2V165.2z"/>
	<path d="M196.7,169.7h5v3.9c0,0.4-0.1,0.7-0.4,0.9c-0.2,0.3-0.6,0.4-1,0.4h-3.6v9.7h-5.9v-9.7H174c-0.5,0-0.9-0.1-1.2-0.4
		c-0.3-0.3-0.6-0.6-0.7-1.1l-0.7-3.4l18.8-25.2h6.4V169.7z M190.7,156.6c0-0.6,0-1.2,0.1-1.9c0-0.7,0.1-1.4,0.2-2.1l-12.3,17h12.1
		V156.6z"/>
	<path d="M219.2,144.4c1.8,0,3.5,0.3,5,0.8c1.5,0.5,2.8,1.3,3.9,2.3c1.1,1,1.9,2.2,2.5,3.6c0.6,1.4,0.9,2.9,0.9,4.6
		c0,1.5-0.2,2.8-0.6,4.1c-0.4,1.2-1,2.4-1.7,3.6c-0.7,1.1-1.6,2.2-2.5,3.3s-2,2.1-3.1,3.2l-9,9.2c0.9-0.3,1.7-0.5,2.6-0.6
		c0.8-0.1,1.7-0.2,2.4-0.2h10.2c0.7,0,1.3,0.2,1.7,0.6c0.4,0.4,0.6,1,0.6,1.6v4.1H205v-2.3c0-0.5,0.1-0.9,0.3-1.4
		c0.2-0.5,0.5-1,0.9-1.4l12.1-12.1c1-1,1.9-2,2.7-2.9c0.8-0.9,1.5-1.9,2-2.8s1-1.8,1.2-2.8c0.3-0.9,0.4-1.9,0.4-3
		c0-1-0.1-1.8-0.4-2.5c-0.3-0.7-0.7-1.3-1.2-1.8c-0.5-0.5-1.1-0.9-1.8-1.1c-0.7-0.2-1.5-0.4-2.4-0.4c-1.6,0-3,0.4-4,1.2
		c-1.1,0.8-1.8,1.9-2.2,3.3c-0.2,0.7-0.5,1.2-0.9,1.5c-0.4,0.3-0.9,0.5-1.5,0.5c-0.3,0-0.6,0-0.9-0.1l-3.6-0.6
		c0.3-1.9,0.8-3.6,1.6-5s1.8-2.6,3-3.6s2.5-1.7,4.1-2.2C215.8,144.7,217.5,144.4,219.2,144.4z"/>
</g>
<g class="st6">
	<path d="M240.6,181.6c0-0.5,0.1-0.9,0.3-1.3c0.2-0.4,0.4-0.8,0.7-1.1c0.3-0.3,0.7-0.5,1.1-0.7s0.9-0.3,1.4-0.3
		c0.5,0,0.9,0.1,1.3,0.3s0.8,0.4,1.1,0.7c0.3,0.3,0.5,0.7,0.7,1.1c0.2,0.4,0.3,0.9,0.3,1.3c0,0.5-0.1,0.9-0.3,1.3
		c-0.2,0.4-0.4,0.8-0.7,1.1s-0.7,0.5-1.1,0.7c-0.4,0.2-0.9,0.3-1.3,0.3c-0.5,0-0.9-0.1-1.4-0.3c-0.4-0.2-0.8-0.4-1.1-0.7
		s-0.5-0.7-0.7-1.1C240.7,182.5,240.6,182.1,240.6,181.6z"/>
	<path d="M268.3,166.4c-0.2,0.2-0.3,0.4-0.5,0.5s-0.4,0.2-0.7,0.2c-0.3,0-0.6-0.1-0.8-0.3c-0.3-0.2-0.6-0.4-1-0.6s-0.8-0.4-1.3-0.6
		s-1.2-0.3-1.9-0.3c-1,0-1.8,0.2-2.6,0.5c-0.7,0.4-1.3,0.9-1.8,1.5c-0.5,0.7-0.9,1.5-1.1,2.4c-0.2,0.9-0.4,2-0.4,3.2
		c0,1.2,0.1,2.3,0.4,3.3s0.6,1.8,1.1,2.4c0.5,0.7,1.1,1.1,1.8,1.5c0.7,0.3,1.5,0.5,2.4,0.5s1.6-0.1,2.1-0.3c0.5-0.2,1-0.5,1.4-0.7
		s0.7-0.5,1-0.7c0.3-0.2,0.6-0.3,0.9-0.3c0.5,0,0.8,0.2,1,0.5l1.6,2c-0.6,0.7-1.3,1.3-2,1.8s-1.5,0.9-2.2,1.2
		c-0.8,0.3-1.6,0.5-2.4,0.6c-0.8,0.1-1.6,0.2-2.5,0.2c-1.4,0-2.8-0.3-4-0.8s-2.4-1.3-3.3-2.3c-0.9-1-1.7-2.3-2.2-3.7
		c-0.5-1.5-0.8-3.2-0.8-5.1c0-1.7,0.2-3.3,0.7-4.7c0.5-1.4,1.2-2.7,2.1-3.8s2.1-1.9,3.5-2.5c1.4-0.6,3-0.9,4.8-0.9
		c1.7,0,3.2,0.3,4.5,0.8s2.5,1.3,3.5,2.4L268.3,166.4z"/>
	<path d="M283.4,161.2c1.7,0,3.3,0.3,4.7,0.8c1.4,0.6,2.6,1.3,3.6,2.4c1,1,1.8,2.3,2.3,3.7c0.5,1.5,0.8,3.1,0.8,4.9
		c0,1.8-0.3,3.5-0.8,5c-0.5,1.5-1.3,2.7-2.3,3.8s-2.2,1.8-3.6,2.4c-1.4,0.6-3,0.8-4.7,0.8s-3.3-0.3-4.7-0.8
		c-1.4-0.6-2.6-1.3-3.6-2.4c-1-1-1.8-2.3-2.3-3.8c-0.5-1.5-0.8-3.1-0.8-5c0-1.8,0.3-3.5,0.8-4.9c0.5-1.5,1.3-2.7,2.3-3.7
		c1-1,2.2-1.8,3.6-2.4C280.1,161.5,281.6,161.2,283.4,161.2z M283.4,180.7c1.9,0,3.3-0.6,4.3-1.9s1.4-3.2,1.4-5.7
		c0-2.5-0.5-4.4-1.4-5.7c-0.9-1.3-2.3-2-4.3-2c-2,0-3.4,0.7-4.3,2c-0.9,1.3-1.4,3.2-1.4,5.7c0,2.5,0.5,4.4,1.4,5.7
		C280,180.1,281.4,180.7,283.4,180.7z"/>
	<path d="M299.1,184.6v-23.1h3.4c0.7,0,1.2,0.3,1.4,1l0.4,1.7c0.4-0.5,0.8-0.9,1.3-1.2s0.9-0.7,1.4-1c0.5-0.3,1-0.5,1.6-0.6
		c0.6-0.2,1.2-0.2,1.9-0.2c1.5,0,2.7,0.4,3.6,1.2c0.9,0.8,1.6,1.8,2.1,3.1c0.4-0.8,0.8-1.4,1.3-2s1.1-1,1.8-1.3
		c0.6-0.3,1.3-0.6,2.1-0.8c0.7-0.2,1.5-0.2,2.2-0.2c1.3,0,2.4,0.2,3.4,0.6c1,0.4,1.8,1,2.5,1.7c0.7,0.8,1.2,1.7,1.5,2.7
		c0.4,1.1,0.5,2.3,0.5,3.7v14.7h-5.6v-14.7c0-1.5-0.3-2.6-1-3.3c-0.6-0.7-1.6-1.1-2.8-1.1c-0.6,0-1.1,0.1-1.6,0.3
		c-0.5,0.2-0.9,0.5-1.3,0.8c-0.4,0.4-0.7,0.8-0.9,1.4c-0.2,0.6-0.3,1.2-0.3,1.9v14.7h-5.6v-14.7c0-1.5-0.3-2.7-0.9-3.4
		s-1.5-1.1-2.8-1.1c-0.8,0-1.5,0.2-2.2,0.6c-0.7,0.4-1.3,0.9-1.9,1.6v16.9H299.1z"/>
</g>
</svg>
