<?xml version="1.0" encoding="utf-8"?>
<!-- Generator: Adobe Illustrator 19.2.0, SVG Export Plug-In . SVG Version: 6.00 Build 0)  -->
<svg version="1.1" id="Layer_1" xmlns="http://www.w3.org/2000/svg" xmlns:xlink="http://www.w3.org/1999/xlink" x="0px" y="0px"
	 viewBox="0 0 32 32" style="enable-background:new 0 0 32 32;" xml:space="preserve">
<style type="text/css">
	.st0{fill:#D12424;}
</style>
<path class="st0" d="M4,8h24 M4,16h24 M4,24h24"/>
<path d="M27.4,9.3H5c-0.5,0-1-0.4-1-1v0c0-0.5,0.4-1,1-1h22.4c0.5,0,1,0.4,1,1v0C28.4,8.9,28,9.3,27.4,9.3z"/>
<path d="M27.4,17H5c-0.5,0-1-0.4-1-1v0c0-0.5,0.4-1,1-1h22.4c0.5,0,1,0.4,1,1v0C28.4,16.6,28,17,27.4,17z"/>
<path d="M27.4,25.4H5c-0.5,0-1-0.4-1-1v0c0-0.5,0.4-1,1-1h22.4c0.5,0,1,0.5,1,1v0C28.4,24.9,28,25.4,27.4,25.4z"/>
</svg>
